# xmcd CD database file
#
# Track frame offsets:
#	150
#	18314
#	42792
#	67602
#	70369
#	83420
#	93874
#	128658
#	154810
#	179268
#	197685
#	219430
#	238736
#	254389
#	281319
#
# Disc length: 4177 seconds
#
# Revision: 0
# Processed by: cddbd v1.5.1PL2 Copyright (c) Steve Scherf et al.
# Submitted via: CDex 1.51
#
DISCID=bc104f0f
DTITLE=All Mighty Senators - Checkered Past, New Tomorrow - Essential AMS 1988 - 2005
DYEAR=2005
DGENRE=Rhythmic Soul
TTITLE0=Checkered Past
TTITLE1=Superfriends (Expandis Mix)
TTITLE2=Old School
TTITLE3=Duke Intro
TTITLE4=Rock and Soul
TTITLE5=Should I Stay or Should I Go
TTITLE6=Feeder
TTITLE7=Kingpin (Eutaw Mix)
TTITLE8=TNRS (The New Reggae Song)
TTITLE9=RaceCar
TTITLE10=Power Generator
TTITLE11=No Clothes On
TTITLE12=One Way Street
TTITLE13=Metaphor
TTITLE14=Black Tie
EXTD=YEAR: 2005
EXTT0=
EXTT1=
EXTT2=
EXTT3=
EXTT4=
EXTT5=
EXTT6=
EXTT7=
EXTT8=
EXTT9=
EXTT10=
EXTT11=
EXTT12=
EXTT13=
EXTT14=
PLAYORDER=
